<?xml version="1.0" standalone="no"?><!-- Generator: Gravit.io --><svg xmlns="http://www.w3.org/2000/svg" xmlns:xlink="http://www.w3.org/1999/xlink" style="isolation:isolate" viewBox="0 0 1920 1080" width="1920" height="1080"><defs><clipPath id="_clipPath_aM5xjeugMul7YiV9aI9jiYh1vfohTjLv"><rect width="1920" height="1080"/></clipPath></defs><g clip-path="url(#_clipPath_aM5xjeugMul7YiV9aI9jiYh1vfohTjLv)"><rect width="1920" height="1080" style="fill:rgb(114,106,227)"/><path d=" M 1245.676 516.312 L 1245.676 516.312 Q 1257.697 517.019 1264.061 523.383 L 1264.061 523.383 L 1264.061 523.383 Q 1270.425 529.747 1270.425 539.646 L 1270.425 539.646 L 1270.425 539.646 Q 1270.425 549.546 1264.061 555.91 L 1264.061 555.91 L 1264.061 555.91 Q 1257.697 562.274 1245.676 562.981 L 1245.676 562.981 L 1245.676 562.981 Q 1218.098 564.396 1207.492 577.477 L 1207.492 577.477 L 1207.492 577.477 Q 1196.885 590.559 1196.885 620.258 L 1196.885 620.258 L 1196.178 780.774 L 1196.178 780.774 Q 1196.178 815.423 1177.792 834.161 L 1177.792 834.161 L 1177.792 834.161 Q 1159.408 852.9 1124.759 852.9 L 1124.759 852.9 L 1075.967 852.9 L 1075.967 852.9 Q 1064.653 852.9 1057.936 847.243 L 1057.936 847.243 L 1057.936 847.243 Q 1051.218 841.586 1051.218 830.272 L 1051.218 830.272 L 1051.218 830.272 Q 1051.218 819.665 1057.936 813.655 L 1057.936 813.655 L 1057.936 813.655 Q 1064.653 807.644 1075.967 807.644 L 1075.967 807.644 L 1108.495 807.644 L 1108.495 807.644 Q 1139.608 807.644 1139.608 775.824 L 1139.608 775.824 L 1139.608 613.894 L 1139.608 613.894 Q 1139.608 582.781 1154.811 563.688 L 1154.811 563.688 L 1154.811 563.688 Q 1170.014 544.596 1191.228 539.646 L 1191.228 539.646 L 1191.228 539.646 Q 1170.014 534.697 1154.811 515.604 L 1154.811 515.604 L 1154.811 515.604 Q 1139.608 496.512 1139.608 465.399 L 1139.608 465.399 L 1139.608 304.176 L 1139.608 304.176 Q 1139.608 272.356 1108.495 272.356 L 1108.495 272.356 L 1075.967 272.356 L 1075.967 272.356 Q 1064.653 272.356 1057.936 266.345 L 1057.936 266.345 L 1057.936 266.345 Q 1051.218 260.335 1051.218 249.728 L 1051.218 249.728 L 1051.218 249.728 Q 1051.218 238.414 1057.936 232.757 L 1057.936 232.757 L 1057.936 232.757 Q 1064.653 227.1 1075.967 227.1 L 1075.967 227.1 L 1124.759 227.1 L 1124.759 227.1 Q 1159.408 227.1 1177.792 245.839 L 1177.792 245.839 L 1177.792 245.839 Q 1196.178 264.577 1196.178 299.226 L 1196.178 299.226 L 1196.178 459.742 L 1196.178 459.742 Q 1196.178 488.734 1207.138 501.816 L 1207.138 501.816 L 1207.138 501.816 Q 1218.098 514.897 1245.676 516.312 L 1245.676 516.312 Z  M 844.033 807.644 L 844.033 807.644 Q 855.346 807.644 862.064 813.655 L 862.064 813.655 L 862.064 813.655 Q 868.782 819.665 868.782 830.272 L 868.782 830.272 L 868.782 830.272 Q 868.782 841.586 862.064 847.243 L 862.064 847.243 L 862.064 847.243 Q 855.346 852.9 844.033 852.9 L 844.033 852.9 L 795.241 852.9 L 795.241 852.9 Q 760.593 852.9 742.207 834.161 L 742.207 834.161 L 742.207 834.161 Q 723.822 815.423 723.822 780.774 L 723.822 780.774 L 723.822 620.258 L 723.822 620.258 Q 723.822 591.266 712.862 577.831 L 712.862 577.831 L 712.862 577.831 Q 701.902 564.396 674.324 562.981 L 674.324 562.981 L 674.324 562.981 Q 662.303 562.274 655.939 555.91 L 655.939 555.91 L 655.939 555.91 Q 649.575 549.546 649.575 539.646 L 649.575 539.646 L 649.575 539.646 Q 649.575 529.747 655.939 523.383 L 655.939 523.383 L 655.939 523.383 Q 662.303 517.019 674.324 516.312 L 674.324 516.312 L 674.324 516.312 Q 701.902 514.897 712.862 501.816 L 712.862 501.816 L 712.862 501.816 Q 723.822 488.734 723.822 459.742 L 723.822 459.742 L 723.822 299.226 L 723.822 299.226 Q 723.822 264.577 742.207 245.839 L 742.207 245.839 L 742.207 245.839 Q 760.593 227.1 795.241 227.1 L 795.241 227.1 L 844.033 227.1 L 844.033 227.1 Q 855.346 227.1 862.064 232.757 L 862.064 232.757 L 862.064 232.757 Q 868.782 238.414 868.782 249.728 L 868.782 249.728 L 868.782 249.728 Q 868.782 260.335 862.064 266.345 L 862.064 266.345 L 862.064 266.345 Q 855.346 272.356 844.033 272.356 L 844.033 272.356 L 810.798 272.356 L 810.798 272.356 Q 780.392 272.356 780.392 304.176 L 780.392 304.176 L 780.392 465.399 L 780.392 465.399 Q 780.392 496.512 765.189 515.604 L 765.189 515.604 L 765.189 515.604 Q 749.986 534.697 728.772 539.646 L 728.772 539.646 L 728.772 539.646 Q 749.986 544.596 765.189 563.688 L 765.189 563.688 L 765.189 563.688 Q 780.392 582.781 780.392 613.894 L 780.392 613.894 L 780.392 775.824 L 780.392 775.824 Q 780.392 807.644 810.798 807.644 L 810.798 807.644 L 844.033 807.644 Z " fill-rule="evenodd" fill="rgb(48,42,140)" vector-effect="non-scaling-stroke" stroke-width="10" stroke="rgb(150,143,255)" stroke-linejoin="miter" stroke-linecap="square" stroke-miterlimit="3"/></g></svg>