<?xml version="1.0" standalone="no"?><!-- Generator: Gravit.io --><svg xmlns="http://www.w3.org/2000/svg" xmlns:xlink="http://www.w3.org/1999/xlink" style="isolation:isolate" viewBox="0 0 1920 1080" width="1920" height="1080"><defs><clipPath id="_clipPath_r0D2mIR6WMgSi3NReZi2ZZb1n9klcb5f"><rect width="1920" height="1080"/></clipPath></defs><g clip-path="url(#_clipPath_r0D2mIR6WMgSi3NReZi2ZZb1n9klcb5f)"><rect width="1920" height="1080" style="fill:rgb(0,168,67)"/><path d=" M 800.627 715.347 L 800.627 715.347 Q 813.258 722.777 813.258 735.408 L 813.258 735.408 L 813.258 735.408 Q 813.258 745.067 806.2 751.383 L 806.2 751.383 L 806.2 751.383 Q 799.141 757.698 787.996 757.698 L 787.996 757.698 L 787.996 757.698 Q 779.823 757.698 773.136 754.726 L 773.136 754.726 L 472.965 618.758 L 472.965 618.758 Q 462.563 614.3 456.619 605.012 L 456.619 605.012 L 456.619 605.012 Q 450.675 595.725 450.675 583.837 L 450.675 583.837 L 450.675 583.837 Q 450.675 572.692 456.619 563.776 L 456.619 563.776 L 456.619 563.776 Q 462.563 554.86 472.965 550.402 L 472.965 550.402 L 773.136 414.433 L 773.136 414.433 Q 782.052 410.718 787.996 410.718 L 787.996 410.718 L 787.996 410.718 Q 799.141 410.718 806.2 417.034 L 806.2 417.034 L 806.2 417.034 Q 813.258 423.349 813.258 433.751 L 813.258 433.751 L 813.258 433.751 Q 813.258 446.382 800.627 453.069 L 800.627 453.069 L 507.886 584.58 L 800.627 715.347 Z  M 896.474 822.339 L 896.474 822.339 Q 893.502 831.998 886.815 837.199 L 886.815 837.199 L 886.815 837.199 Q 880.128 842.4 871.955 842.4 L 871.955 842.4 L 871.955 842.4 Q 861.553 842.4 853.38 834.97 L 853.38 834.97 L 853.38 834.97 Q 845.207 827.54 845.207 816.395 L 845.207 816.395 L 845.207 816.395 Q 845.207 811.937 847.436 805.993 L 847.436 805.993 L 1022.783 257.661 L 1022.783 257.661 Q 1025.755 248.002 1032.442 242.801 L 1032.442 242.801 L 1032.442 242.801 Q 1039.129 237.6 1047.302 237.6 L 1047.302 237.6 L 1047.302 237.6 Q 1057.704 237.6 1065.877 245.03 L 1065.877 245.03 L 1065.877 245.03 Q 1074.05 252.46 1074.05 264.348 L 1074.05 264.348 L 1074.05 264.348 Q 1074.05 266.577 1072.564 274.007 L 1072.564 274.007 L 896.474 822.339 Z  M 1447.035 550.402 L 1447.035 550.402 Q 1457.437 554.86 1463.381 563.776 L 1463.381 563.776 L 1463.381 563.776 Q 1469.325 572.692 1469.325 583.837 L 1469.325 583.837 L 1469.325 583.837 Q 1469.325 595.725 1463.381 605.012 L 1463.381 605.012 L 1463.381 605.012 Q 1457.437 614.3 1447.035 618.758 L 1447.035 618.758 L 1146.864 754.726 L 1146.864 754.726 Q 1140.177 757.698 1132.004 757.698 L 1132.004 757.698 L 1132.004 757.698 Q 1121.602 757.698 1114.172 751.383 L 1114.172 751.383 L 1114.172 751.383 Q 1106.742 745.067 1106.742 735.408 L 1106.742 735.408 L 1106.742 735.408 Q 1106.742 722.777 1120.116 715.347 L 1120.116 715.347 L 1412.114 584.58 L 1120.116 453.069 L 1120.116 453.069 Q 1106.742 447.125 1106.742 433.751 L 1106.742 433.751 L 1106.742 433.751 Q 1106.742 423.349 1113.801 417.034 L 1113.801 417.034 L 1113.801 417.034 Q 1120.859 410.718 1132.004 410.718 L 1132.004 410.718 L 1132.004 410.718 Q 1137.948 410.718 1146.864 414.433 L 1146.864 414.433 L 1447.035 550.402 Z " fill-rule="evenodd" fill="rgb(9,98,45)" vector-effect="non-scaling-stroke" stroke-width="10" stroke="rgb(92,255,157)" stroke-linejoin="miter" stroke-linecap="square" stroke-miterlimit="3"/></g></svg>