<?xml version="1.0" standalone="no"?><!-- Generator: Gravit.io --><svg xmlns="http://www.w3.org/2000/svg" xmlns:xlink="http://www.w3.org/1999/xlink" style="isolation:isolate" viewBox="0 0 1920 1080" width="1920" height="1080"><defs><clipPath id="_clipPath_z2hqsUkmOMNaHVDbVdlN5yMx8WXxPMHJ"><rect width="1920" height="1080"/></clipPath></defs><g clip-path="url(#_clipPath_z2hqsUkmOMNaHVDbVdlN5yMx8WXxPMHJ)"><rect width="1920" height="1080" style="fill:rgb(236,86,75)"/><path d=" M 1163.588 769.741 L 1163.588 769.741 Q 1154.871 785.165 1139.447 785.165 L 1139.447 785.165 L 1139.447 785.165 Q 1131.4 785.165 1125.7 780.135 L 1125.7 780.135 L 1125.7 780.135 Q 1120 775.106 1120 767.059 L 1120 767.059 L 1120 767.059 Q 1120 764.376 1122.682 756.329 L 1122.682 756.329 L 1122.682 756.329 Q 1178.341 622.882 1178.341 483.4 L 1178.341 483.4 L 1178.341 483.4 Q 1178.341 343.918 1122.682 210.471 L 1122.682 210.471 L 1122.682 210.471 Q 1120 202.424 1120 199.741 L 1120 199.741 L 1120 199.741 Q 1120 191.694 1125.7 186.665 L 1125.7 186.665 L 1125.7 186.665 Q 1131.4 181.635 1139.447 181.635 L 1139.447 181.635 L 1139.447 181.635 Q 1154.871 181.635 1163.588 197.059 L 1163.588 197.059 L 1163.588 197.059 Q 1234 333.859 1234 483.4 L 1234 483.4 L 1234 483.4 Q 1234 632.941 1163.588 769.741 L 1163.588 769.741 Z  M 849.082 769.741 L 849.082 769.741 Q 778 633.612 778 483.4 L 778 483.4 L 778 483.4 Q 778 333.188 849.082 197.059 L 849.082 197.059 L 849.082 197.059 Q 857.8 181.635 872.553 181.635 L 872.553 181.635 L 872.553 181.635 Q 880.6 181.635 886.3 187 L 886.3 187 L 886.3 187 Q 892 192.365 892 200.412 L 892 200.412 L 892 200.412 Q 892 205.106 889.988 210.471 L 889.988 210.471 L 889.988 210.471 Q 833.659 343.247 833.659 483.4 L 833.659 483.4 L 833.659 483.4 Q 833.659 623.553 889.988 756.329 L 889.988 756.329 L 889.988 756.329 Q 892 762.365 892 766.388 L 892 766.388 L 892 766.388 Q 892 775.106 886.3 780.135 L 886.3 780.135 L 886.3 780.135 Q 880.6 785.165 872.553 785.165 L 872.553 785.165 L 872.553 785.165 Q 857.8 785.165 849.082 769.741 L 849.082 769.741 Z " fill-rule="evenodd" fill="rgb(123,39,33)" vector-effect="non-scaling-stroke" stroke-width="10" stroke="rgb(225,129,123)" stroke-linejoin="miter" stroke-linecap="square" stroke-miterlimit="3"/></g></svg>