<?xml version="1.0" standalone="no"?><!-- Generator: Gravit.io --><svg xmlns="http://www.w3.org/2000/svg" xmlns:xlink="http://www.w3.org/1999/xlink" style="isolation:isolate" viewBox="0 0 125.821 199.715" width="50" height="50"><defs><clipPath id="_clipPath_LvTk5CqvnPrWyNEWd4xrWRQw6scKcZpe"><rect width="125.821" height="199.715"/></clipPath></defs><g clip-path="url(#_clipPath_LvTk5CqvnPrWyNEWd4xrWRQw6scKcZpe)"><path d=" M 48.909 0.424 L 77.42 0.006 C 107.221 -0.431 128.761 23.265 125.493 52.889 L 121.836 86.04 C 118.568 115.664 91.83 139.043 62.165 138.215 L 62.165 138.215 C 32.499 137.387 6.016 112.637 3.061 82.981 L 0.268 54.949 C -2.686 25.292 19.109 0.86 48.909 0.424 Z " fill="rgb(219,207,40)" fill-opacity="0.6"/><clipPath id="_clipPath_w4mJVuqdb6XXESvU8EZcb4gpZIHdVN6N"><path d=" M 48.909 0.424 L 77.42 0.006 C 107.221 -0.431 128.761 23.265 125.493 52.889 L 121.836 86.04 C 118.568 115.664 91.83 139.043 62.165 138.215 L 62.165 138.215 C 32.499 137.387 6.016 112.637 3.061 82.981 L 0.268 54.949 C -2.686 25.292 19.109 0.86 48.909 0.424 Z " fill="rgb(219,207,40)" fill-opacity="0.6"/></clipPath><g clip-path="url(#_clipPath_w4mJVuqdb6XXESvU8EZcb4gpZIHdVN6N)"><path d="M 46.715 67.305 L 83.698 67.305 C 86.761 67.305 89.248 69.792 89.248 72.855 L 89.248 128.165 C 89.248 131.228 86.761 133.715 83.698 133.715 L 46.715 133.715 C 43.651 133.715 41.165 131.228 41.165 128.165 L 41.165 72.855 C 41.165 69.792 43.651 67.305 46.715 67.305 Z" style="stroke:none;fill:#9D9309;stroke-miterlimit:10;"/></g><path d=" M 63.415 199.715 L 18.915 199.715 L 18.915 187.215 L 25.415 174.715 L 18.915 158.222 L 25.415 133.715 L 18.915 117.715 L 63.415 117.715 L 63.415 199.715 Z " fill="rgb(235,235,235)"/><path d=" M 59.915 199.715 L 107.915 199.715 L 107.915 187.215 L 100.903 174.715 L 107.915 158.222 L 100.903 133.715 L 107.915 117.715 L 59.915 117.715 L 59.915 199.715 Z " fill="rgb(130,130,130)"/><path d="M 83.1 46.796 L 88.565 46.796 C 88.942 46.796 89.248 47.102 89.248 47.479 L 89.248 73.784 C 89.248 74.161 88.942 74.467 88.565 74.467 L 83.1 74.467 C 82.723 74.467 82.417 74.161 82.417 73.784 L 82.417 47.479 C 82.417 47.102 82.723 46.796 83.1 46.796 Z" style="stroke:none;fill:#9D9309;stroke-miterlimit:10;"/><path d="M 41.848 46.796 L 47.312 46.796 C 47.689 46.796 47.996 47.102 47.996 47.479 L 47.996 73.784 C 47.996 74.161 47.689 74.467 47.312 74.467 L 41.848 74.467 C 41.471 74.467 41.165 74.161 41.165 73.784 L 41.165 47.479 C 41.165 47.102 41.471 46.796 41.848 46.796 Z" style="stroke:none;fill:#9D9309;stroke-miterlimit:10;"/><path d=" M 59.468 51.196 L 59.468 53.161 L 46.96 47.668 L 46.96 46.393 L 59.468 40.158 L 59.468 42.097 L 49.29 46.926 L 59.468 51.196 Z  M 68.203 37.281 L 70.363 37.281 L 63.269 56.311 L 61.109 56.311 L 68.203 37.281 Z  M 71.99 53.161 L 71.99 51.196 L 82.182 46.953 L 71.99 42.097 L 71.99 40.158 L 84.499 46.393 L 84.499 47.668 L 71.99 53.161 Z " fill-rule="evenodd" fill="rgb(115,109,30)"/></g></svg>
