<?xml version="1.0" standalone="no"?><!-- Generator: Gravit.io --><svg xmlns="http://www.w3.org/2000/svg" xmlns:xlink="http://www.w3.org/1999/xlink" style="isolation:isolate" viewBox="0 0 50 50" width="50" height="50"><defs><clipPath id="_clipPath_2HOL4MPgZz3mx045sW9jFrtpzbKq5DC1"><rect width="50" height="50"/></clipPath></defs><g clip-path="url(#_clipPath_2HOL4MPgZz3mx045sW9jFrtpzbKq5DC1)"><rect width="50" height="50" style="fill:rgb(35,75,113)"/><g id="Group"><g id="Group"><path d=" M 11.608 8.967 C 11.677 5.132 14.811 2.041 18.662 2.041 L 18.662 2.041 C 20.411 0.914 22.541 0 23.416 0 L 23.416 0 Q 25 0 26.913 0 L 26.913 0 C 27.969 0 29.952 0.914 31.338 2.041 L 31.338 2.041 C 35.189 2.041 38.323 5.132 38.392 8.967 L 11.608 8.967 Z  M 38.395 8.967 L 11.605 8.967 L 18.139 33.796 L 32.775 33.796 L 38.395 8.967 Z " fill="rgb(204,204,88)"/></g><path d="M 35.909 12.775 L 35.909 12.775 C 35.599 12.693 35.279 12.882 35.195 13.199 L 29.756 33.608 C 29.672 33.924 29.855 34.248 30.165 34.331 L 30.165 34.331 C 30.475 34.413 30.795 34.223 30.879 33.907 L 36.317 13.498 C 36.401 13.182 36.218 12.858 35.909 12.775 Z" style="stroke:none;fill:#353535;stroke-miterlimit:10;"/><path d="M 14.353 12.775 L 14.353 12.775 C 14.663 12.693 14.983 12.882 15.067 13.199 L 20.505 33.608 C 20.589 33.924 20.406 34.248 20.096 34.331 L 20.096 34.331 C 19.787 34.413 19.467 34.223 19.382 33.907 L 13.944 13.498 C 13.86 13.182 14.043 12.858 14.353 12.775 Z" style="stroke:none;fill:#353535;stroke-miterlimit:10;"/><g id="Group"><path d=" M 25.849 50 L 34.474 50 L 33.037 47.909 L 34.474 45.818 L 32.645 42.682 L 34.474 39.191 L 32.645 35.8 L 34.474 33.796 L 25.849 33.796 L 25.849 50 Z  M 25.849 50 L 17.225 50 L 18.662 47.909 L 17.225 45.818 L 19.054 42.682 L 17.225 39.191 L 19.054 35.8 L 17.225 33.796 L 25.849 33.796 L 25.849 50 Z " fill="rgb(94,94,94)"/></g><path d="M 35.906 12.782 L 30.873 11.457 C 30.588 11.382 30.297 11.548 30.223 11.828 L 30.223 11.828 C 30.15 12.107 30.322 12.395 30.607 12.47 L 35.639 13.794 C 35.925 13.869 36.216 13.703 36.289 13.424 L 36.289 13.424 C 36.363 13.145 36.191 12.857 35.906 12.782 Z" style="stroke:none;fill:#353535;stroke-miterlimit:10;"/><path d="M 14.355 12.782 L 19.388 11.457 C 19.673 11.382 19.965 11.548 20.038 11.828 L 20.038 11.828 C 20.112 12.107 19.94 12.395 19.655 12.47 L 14.622 13.794 C 14.337 13.869 14.046 13.703 13.972 13.424 L 13.972 13.424 C 13.899 13.145 14.07 12.857 14.355 12.782 Z" style="stroke:none;fill:#353535;stroke-miterlimit:10;"/><path d=" M 26.972 13.606 L 26.972 13.606 Q 26.815 13.698 26.815 13.855 L 26.815 13.855 L 26.815 13.855 Q 26.815 13.974 26.903 14.052 L 26.903 14.052 L 26.903 14.052 Q 26.99 14.13 27.128 14.13 L 27.128 14.13 L 27.128 14.13 Q 27.229 14.13 27.312 14.094 L 27.312 14.094 L 31.025 12.412 L 31.025 12.412 Q 31.154 12.356 31.227 12.242 L 31.227 12.242 L 31.227 12.242 Q 31.301 12.127 31.301 11.98 L 31.301 11.98 L 31.301 11.98 Q 31.301 11.842 31.227 11.731 L 31.227 11.731 L 31.227 11.731 Q 31.154 11.621 31.025 11.566 L 31.025 11.566 L 27.312 9.884 L 27.312 9.884 Q 27.201 9.838 27.128 9.838 L 27.128 9.838 L 27.128 9.838 Q 26.99 9.838 26.903 9.916 L 26.903 9.916 L 26.903 9.916 Q 26.815 9.994 26.815 10.123 L 26.815 10.123 L 26.815 10.123 Q 26.815 10.279 26.972 10.362 L 26.972 10.362 L 30.593 11.989 L 26.972 13.606 Z  M 25.786 14.93 L 25.786 14.93 Q 25.823 15.05 25.905 15.114 L 25.905 15.114 L 25.905 15.114 Q 25.988 15.178 26.089 15.178 L 26.089 15.178 L 26.089 15.178 Q 26.218 15.178 26.319 15.086 L 26.319 15.086 L 26.319 15.086 Q 26.42 14.994 26.42 14.857 L 26.42 14.857 L 26.42 14.857 Q 26.42 14.801 26.393 14.728 L 26.393 14.728 L 24.223 7.944 L 24.223 7.944 Q 24.187 7.825 24.104 7.761 L 24.104 7.761 L 24.104 7.761 Q 24.021 7.696 23.92 7.696 L 23.92 7.696 L 23.92 7.696 Q 23.791 7.696 23.69 7.788 L 23.69 7.788 L 23.69 7.788 Q 23.589 7.88 23.589 8.027 L 23.589 8.027 L 23.589 8.027 Q 23.589 8.055 23.607 8.147 L 23.607 8.147 L 25.786 14.93 Z  M 18.975 11.566 L 18.975 11.566 Q 18.846 11.621 18.773 11.731 L 18.773 11.731 L 18.773 11.731 Q 18.699 11.842 18.699 11.98 L 18.699 11.98 L 18.699 11.98 Q 18.699 12.127 18.773 12.242 L 18.773 12.242 L 18.773 12.242 Q 18.846 12.356 18.975 12.412 L 18.975 12.412 L 22.688 14.094 L 22.688 14.094 Q 22.771 14.13 22.872 14.13 L 22.872 14.13 L 22.872 14.13 Q 23.001 14.13 23.093 14.052 L 23.093 14.052 L 23.093 14.052 Q 23.185 13.974 23.185 13.855 L 23.185 13.855 L 23.185 13.855 Q 23.185 13.698 23.019 13.606 L 23.019 13.606 L 19.407 11.989 L 23.019 10.362 L 23.019 10.362 Q 23.185 10.288 23.185 10.123 L 23.185 10.123 L 23.185 10.123 Q 23.185 9.994 23.097 9.916 L 23.097 9.916 L 23.097 9.916 Q 23.01 9.838 22.872 9.838 L 22.872 9.838 L 22.872 9.838 Q 22.799 9.838 22.688 9.884 L 22.688 9.884 L 18.975 11.566 Z " fill-rule="evenodd" fill="rgb(53,53,53)"/></g></g></svg>