<?xml version="1.0" standalone="no"?><!-- Generator: Gravit.io --><svg xmlns="http://www.w3.org/2000/svg" xmlns:xlink="http://www.w3.org/1999/xlink" style="isolation:isolate" viewBox="0 0 280 188" width="280" height="188"><defs><clipPath id="_clipPath_GieZ0TN6UxYqo04iQTi41Rex2SauLSgK"><rect width="280" height="188"/></clipPath></defs><g clip-path="url(#_clipPath_GieZ0TN6UxYqo04iQTi41Rex2SauLSgK)"><path d="M 122.279 93.605 L 143.676 93.605 C 146.11 93.605 148.087 95.581 148.087 98.016 L 148.087 183.589 C 148.087 186.024 146.11 188 143.676 188 L 122.279 188 C 119.845 188 117.869 186.024 117.869 183.589 L 117.869 98.016 C 117.869 95.581 119.845 93.605 122.279 93.605 Z" style="stroke:none;fill:#424242;stroke-miterlimit:10;"/><polygon points="102.745,120.748,0,76.662,37.255,16.288,177.255,0,280,44.086,242.745,104.46" fill="rgb(10,183,96)"/><polygon points="107.702,112.715,18.627,74.495,50.925,22.154,172.298,8.033,261.373,46.253,229.075,98.594" fill="rgb(0,81,40)"/><path d=" M 49.19 42.271 L 36.384 30.864 L 14.832 31.334 L 27.374 19.8 L 20.034 6.468 L 40.592 10.747 L 57.607 2.037 L 57.771 16.215 L 75.626 24.165 L 55.17 28.648 L 49.19 42.271 Z " fill="rgb(30,255,146)"/><path d="M 104.102 181.122 L 167.031 181.122 C 167.78 181.122 168.388 181.73 168.388 182.479 L 168.388 186.643 C 168.388 187.392 167.78 188 167.031 188 L 104.102 188 C 103.353 188 102.745 187.392 102.745 186.643 L 102.745 182.479 C 102.745 181.73 103.353 181.122 104.102 181.122 Z" style="stroke:none;fill:#202020;stroke-miterlimit:10;"/></g></svg>