<?xml version="1.0" standalone="no"?><!-- Generator: Gravit.io --><svg xmlns="http://www.w3.org/2000/svg" xmlns:xlink="http://www.w3.org/1999/xlink" style="isolation:isolate" viewBox="0 0 280 188" width="280" height="188"><defs><clipPath id="_clipPath_OGs64jFJCdQPdmYv8QuisOSmrMuHYYDD"><rect width="280" height="188"/></clipPath></defs><g clip-path="url(#_clipPath_OGs64jFJCdQPdmYv8QuisOSmrMuHYYDD)"><rect x="245.123" y="100.212" width="7.792" height="87.788" transform="matrix(1,0,0,1,0,0)" fill="rgb(42,42,42)"/><rect x="32.136" y="100.212" width="7.792" height="87.788" transform="matrix(1,0,0,1,0,0)" fill="rgb(42,42,42)"/><path d="M 3.307 0 L 276.693 0 C 278.518 0 280 1.482 280 3.307 L 280 108.859 C 280 110.684 278.518 112.166 276.693 112.166 L 3.307 112.166 C 1.482 112.166 0 110.684 0 108.859 L 0 3.307 C 0 1.482 1.482 0 3.307 0 Z" style="stroke:none;fill:#FFFFFF;stroke-miterlimit:10;"/><rect x="10" y="7" width="260" height="96" transform="matrix(1,0,0,1,0,0)" fill="rgb(0,58,157)"/><path d="M 13.919 9.047 L 266.081 9.047 C 266.708 9.047 267.217 9.556 267.217 10.183 L 267.217 99.817 C 267.217 100.444 266.708 100.953 266.081 100.953 L 13.919 100.953 C 13.292 100.953 12.783 100.444 12.783 99.817 L 12.783 10.183 C 12.783 9.556 13.292 9.047 13.919 9.047 Z" style="stroke:none;fill:#8CB6FF;stroke-miterlimit:10;"/><path d="M 276.952 27 L 277.199 27 C 278.09 27 278.814 27.724 278.814 28.615 L 278.814 65.385 C 278.814 66.276 278.09 67 277.199 67 L 276.952 67 C 276.061 67 275.337 66.276 275.337 65.385 L 275.337 28.615 C 275.337 27.724 276.061 27 276.952 27 Z" style="stroke:none;fill:#A4A4A4;stroke-miterlimit:10;"/><path d="M 243.354 1.375 L 243.354 1.375 C 243.354 1.72 242.842 2 242.212 2 L 188.872 2 C 188.242 2 187.73 1.72 187.73 1.375 L 187.73 1.375 C 187.73 1.03 188.242 0.75 188.872 0.75 L 242.212 0.75 C 242.842 0.75 243.354 1.03 243.354 1.375 Z" style="stroke:none;fill:#A4A4A4;stroke-miterlimit:10;"/><path d="M 34.43 116 L 34.853 116 C 35.504 116 36.032 116.528 36.032 117.179 L 36.032 154.821 C 36.032 155.472 35.504 156 34.853 156 L 34.43 156 C 33.78 156 33.251 155.472 33.251 154.821 L 33.251 117.179 C 33.251 116.528 33.78 116 34.43 116 Z" style="stroke:none;fill:#CACACA;stroke-miterlimit:10;"/><path d="M 250.095 141 L 250.518 141 C 251.169 141 251.697 141.528 251.697 142.179 L 251.697 179.821 C 251.697 180.472 251.169 181 250.518 181 L 250.095 181 C 249.444 181 248.916 180.472 248.916 179.821 L 248.916 142.179 C 248.916 141.528 249.444 141 250.095 141 Z" style="stroke:none;fill:#CACACA;stroke-miterlimit:10;"/></g></svg>