<?xml version="1.0" standalone="no"?><!-- Generator: Gravit.io --><svg xmlns="http://www.w3.org/2000/svg" xmlns:xlink="http://www.w3.org/1999/xlink" style="isolation:isolate" viewBox="0 0 280 188" width="280" height="188"><defs><clipPath id="_clipPath_p7KeyIdN6PQuYIXG1XbwyAighIb68Jwt"><rect width="280" height="188"/></clipPath></defs><g clip-path="url(#_clipPath_p7KeyIdN6PQuYIXG1XbwyAighIb68Jwt)"><path d="M 26.671 106.28 L 29.932 106.28 C 31.358 106.28 32.516 107.439 32.516 108.865 L 32.516 185.415 C 32.516 186.842 31.358 188 29.932 188 L 26.671 188 C 25.244 188 24.086 186.842 24.086 185.415 L 24.086 108.865 C 24.086 107.439 25.244 106.28 26.671 106.28 Z" style="stroke:none;fill:#171717;stroke-miterlimit:10;"/><path d="M 233.946 97.476 L 236.936 97.476 C 238.437 97.476 239.656 98.695 239.656 100.196 L 239.656 185.28 C 239.656 186.781 238.437 188 236.936 188 L 233.946 188 C 232.445 188 231.226 186.781 231.226 185.28 L 231.226 100.196 C 231.226 98.695 232.445 97.476 233.946 97.476 Z" style="stroke:none;fill:#171717;stroke-miterlimit:10;"/><path d=" M 0 25.784 L 220.387 0 L 280 71.063 L 220.387 127.033 L 0 116.343 L 0 25.784 Z " fill="rgb(119,84,28)"/><path d=" M 9.032 28.847 L 215.201 4.727 L 270.968 71.205 L 215.201 123.564 L 9.032 113.563 L 9.032 28.847 Z " fill="rgb(149,96,27)" fill-opacity="0.45"/><path d="M 30.075 29.607 L 92.282 23.082 C 93.633 22.94 94.836 23.923 94.966 25.275 L 94.976 25.381 C 95.106 26.733 94.115 27.946 92.764 28.088 L 30.556 34.613 C 29.205 34.754 28.003 33.772 27.873 32.419 L 27.863 32.314 C 27.733 30.961 28.724 29.749 30.075 29.607 Z" style="stroke:none;fill:#593A09;stroke-miterlimit:10;"/><path d="M 42.452 37.838 L 79.905 33.909 C 80.965 33.798 81.908 34.569 82.01 35.63 L 82.122 36.791 C 82.224 37.852 81.446 38.804 80.387 38.915 L 42.934 42.843 C 41.874 42.955 40.93 42.184 40.828 41.123 L 40.717 39.961 C 40.615 38.9 41.392 37.949 42.452 37.838 Z" style="stroke:none;fill:#593A09;stroke-miterlimit:10;"/><path d="M 209.823 110.062 L 257.98 68.28 C 259.006 67.39 260.526 67.53 261.372 68.594 L 261.385 68.611 C 262.231 69.674 262.085 71.26 261.058 72.15 L 212.902 113.932 C 211.875 114.822 210.356 114.682 209.51 113.619 L 209.496 113.602 C 208.651 112.539 208.797 110.953 209.823 110.062 Z" style="stroke:none;fill:#593A09;stroke-miterlimit:10;"/><path d="M 25.197 100.175 L 87.335 107.386 C 88.685 107.542 89.663 108.766 89.52 110.117 L 89.509 110.222 C 89.365 111.573 88.153 112.543 86.803 112.386 L 24.665 105.175 C 23.315 105.019 22.337 103.795 22.48 102.444 L 22.491 102.339 C 22.635 100.988 23.847 100.018 25.197 100.175 Z" style="stroke:none;fill:#593A09;stroke-miterlimit:10;"/></g></svg>