<?xml version="1.0" standalone="no"?><!-- Generator: Gravit.io --><svg xmlns="http://www.w3.org/2000/svg" xmlns:xlink="http://www.w3.org/1999/xlink" style="isolation:isolate" viewBox="0 0 280 188" width="280" height="188"><defs><clipPath id="_clipPath_upR41ZiMJ24mR0GdlSzyWc5WB89EwLpG"><rect width="280" height="188"/></clipPath></defs><g clip-path="url(#_clipPath_upR41ZiMJ24mR0GdlSzyWc5WB89EwLpG)"><path d="M 251.109 0 L 253.144 0 C 262.372 0 269.864 7.492 269.864 16.72 L 269.864 171.28 C 269.864 180.508 262.372 188 253.144 188 L 251.109 188 C 241.881 188 234.389 180.508 234.389 171.28 L 234.389 16.72 C 234.389 7.492 241.881 0 251.109 0 Z" style="stroke:none;fill:#4D4D4D;stroke-miterlimit:10;"/><path d="M 168.216 25.892 L 247.35 25.892 C 249.986 25.892 252.127 27.91 252.127 30.395 L 252.127 30.395 C 252.127 32.88 249.986 34.898 247.35 34.898 L 168.216 34.898 C 165.579 34.898 163.439 32.88 163.439 30.395 L 163.439 30.395 C 163.439 27.91 165.579 25.892 168.216 25.892 Z" style="stroke:none;fill:#4D4D4D;stroke-miterlimit:10;"/><path d="M 124.615 151.371 L 249.141 151.371 C 250.789 151.371 252.127 152.632 252.127 154.186 L 252.127 154.186 C 252.127 155.739 250.789 157 249.141 157 L 124.615 157 C 122.967 157 121.629 155.739 121.629 154.186 L 121.629 154.186 C 121.629 152.632 122.967 151.371 124.615 151.371 Z" style="stroke:none;fill:#4D4D4D;stroke-miterlimit:10;"/><path d="M 15.663 0 L 183.252 0 C 191.896 0 198.914 7.018 198.914 15.663 L 198.914 155.337 C 198.914 163.982 191.896 171 183.252 171 L 15.663 171 C 7.018 171 0 163.982 0 155.337 L 0 15.663 C 0 7.018 7.018 0 15.663 0 Z" style="stroke:none;fill:#009CBB;stroke-miterlimit:10;"/><path d="M 12.419 11.569 L 186.581 11.569 C 189.02 11.569 191 13.549 191 15.988 L 191 155.012 C 191 157.451 189.02 159.431 186.581 159.431 L 12.419 159.431 C 9.98 159.431 8 157.451 8 155.012 L 8 15.988 C 8 13.549 9.98 11.569 12.419 11.569 Z" style="stroke:none;fill:#FFFFFF;stroke-miterlimit:10;"/><path d="M 229.945 166.611 L 275.575 166.611 C 278.017 166.611 280 168.593 280 171.036 L 280 183.575 C 280 186.017 278.017 188 275.575 188 L 229.945 188 C 227.503 188 225.52 186.017 225.52 183.575 L 225.52 171.036 C 225.52 168.593 227.503 166.611 229.945 166.611 Z" style="stroke:none;fill:#003A46;stroke-miterlimit:10;"/></g></svg>