<?xml version="1.0" standalone="no"?><!-- Generator: Gravit.io --><svg xmlns="http://www.w3.org/2000/svg" xmlns:xlink="http://www.w3.org/1999/xlink" style="isolation:isolate" viewBox="0 0 280 188" width="280" height="188"><defs><clipPath id="_clipPath_QtW02fqjrtvi0AHJ93rMoNlgRA7Qz4wb"><rect width="280" height="188"/></clipPath></defs><g clip-path="url(#_clipPath_QtW02fqjrtvi0AHJ93rMoNlgRA7Qz4wb)"><path d="M 200.885 94.743 L 223.397 94.743 C 226.113 94.743 228.318 96.755 228.318 99.233 L 228.318 99.233 C 228.318 101.711 226.113 103.723 223.397 103.723 L 200.885 103.723 C 198.169 103.723 195.964 101.711 195.964 99.233 L 195.964 99.233 C 195.964 96.755 198.169 94.743 200.885 94.743 Z" style="stroke:none;fill:#0B0B0B;stroke-miterlimit:10;"/><path d="M 214.159 11.674 L 224.667 11.674 C 226.682 11.674 228.318 13.31 228.318 15.325 L 228.318 17.004 C 228.318 19.019 226.682 20.655 224.667 20.655 L 214.159 20.655 C 212.144 20.655 210.508 19.019 210.508 17.004 L 210.508 15.325 C 210.508 13.31 212.144 11.674 214.159 11.674 Z" style="stroke:none;fill:#0B0B0B;stroke-miterlimit:10;"/><path d="M 50.924 103.723 L 51.902 103.723 C 53.762 103.723 55.272 105.233 55.272 107.093 L 55.272 177.584 C 55.272 179.444 53.762 180.954 51.902 180.954 L 50.924 180.954 C 49.064 180.954 47.554 179.444 47.554 177.584 L 47.554 107.093 C 47.554 105.233 49.064 103.723 50.924 103.723 Z" style="stroke:none;fill:#333333;stroke-miterlimit:10;"/><rect x="46.367" y="173.908" width="10.092" height="14.092" transform="matrix(1,0,0,1,0,0)" fill="rgb(30,30,30)"/><path d="M 182.754 103.723 L 183.733 103.723 C 185.592 103.723 187.102 105.233 187.102 107.093 L 187.102 177.584 C 187.102 179.444 185.592 180.954 183.733 180.954 L 182.754 180.954 C 180.895 180.954 179.385 179.444 179.385 177.584 L 179.385 107.093 C 179.385 105.233 180.895 103.723 182.754 103.723 Z" style="stroke:none;fill:#333333;stroke-miterlimit:10;"/><rect x="178.198" y="173.908" width="10.092" height="14.092" transform="matrix(1,0,0,1,0,0)" fill="rgb(30,30,30)"/><path d=" M 0 0 L 220.366 0 L 195.964 116.744 L 34.494 116.744 L 0 0 Z " fill="rgb(255,234,47)"/><path d=" M 9.858 5.223 L 210.508 5.223 L 188.289 111.522 L 41.266 111.522 L 9.858 5.223 Z " fill="rgb(134,126,16)"/><path d=" M 221.218 108.662 L 232.176 57.323 L 221.218 5.983 L 250.609 31.653 L 280 57.323 L 250.609 82.992 L 221.218 108.662 Z " fill="rgb(244,240,114)"/><path d=" M 227.047 98.481 L 235.832 57.323 L 227.047 16.165 L 250.609 36.744 L 274.171 57.323 L 250.609 77.902 L 227.047 98.481 Z " fill="rgb(185,181,75)"/></g></svg>