<?xml version="1.0" standalone="no"?><!-- Generator: Gravit.io --><svg xmlns="http://www.w3.org/2000/svg" xmlns:xlink="http://www.w3.org/1999/xlink" style="isolation:isolate" viewBox="0 0 280 188" width="280" height="188"><defs><clipPath id="_clipPath_X4ZHQb0T2oOvelWd2VjZn3YX2PIqX4t5"><rect width="280" height="188"/></clipPath></defs><g clip-path="url(#_clipPath_X4ZHQb0T2oOvelWd2VjZn3YX2PIqX4t5)"><path d="M 50.435 142.713 L 74.524 142.713 C 75.539 142.713 76.364 143.537 76.364 144.553 L 76.364 186.16 C 76.364 187.176 75.539 188 74.524 188 L 50.435 188 C 49.419 188 48.595 187.176 48.595 186.16 L 48.595 144.553 C 48.595 143.537 49.419 142.713 50.435 142.713 Z" style="stroke:none;fill:#4A4A4A;stroke-miterlimit:10;"/><path d="M 45.649 182 L 79.309 182 C 79.955 182 80.479 182.524 80.479 183.17 L 80.479 186.83 C 80.479 187.476 79.955 188 79.309 188 L 45.649 188 C 45.004 188 44.479 187.476 44.479 186.83 L 44.479 183.17 C 44.479 182.524 45.004 182 45.649 182 Z" style="stroke:none;fill:#1C1C1C;stroke-miterlimit:10;"/><path d="M 215.956 142.713 L 240.044 142.713 C 241.06 142.713 241.884 143.537 241.884 144.553 L 241.884 186.16 C 241.884 187.176 241.06 188 240.044 188 L 215.956 188 C 214.94 188 214.116 187.176 214.116 186.16 L 214.116 144.553 C 214.116 143.537 214.94 142.713 215.956 142.713 Z" style="stroke:none;fill:#4A4A4A;stroke-miterlimit:10;"/><path d="M 4.763 0 L 275.237 0 C 277.866 0 280 2.134 280 4.763 L 280 149.748 C 280 152.376 277.866 154.51 275.237 154.51 L 4.763 154.51 C 2.134 154.51 0 152.376 0 149.748 L 0 4.763 C 0 2.134 2.134 0 4.763 0 Z" style="stroke:none;fill:#BD2929;stroke-miterlimit:10;"/><path d="M 19.419 8.372 L 260.581 8.372 C 262.925 8.372 264.828 10.275 264.828 12.619 L 264.828 141.891 C 264.828 144.235 262.925 146.138 260.581 146.138 L 19.419 146.138 C 17.075 146.138 15.172 144.235 15.172 141.891 L 15.172 12.619 C 15.172 10.275 17.075 8.372 19.419 8.372 Z" style="stroke:none;fill:#FFFFFF;stroke-miterlimit:10;"/><path d="M 211.17 182 L 244.83 182 C 245.476 182 246 182.524 246 183.17 L 246 186.83 C 246 187.476 245.476 188 244.83 188 L 211.17 188 C 210.524 188 210 187.476 210 186.83 L 210 183.17 C 210 182.524 210.524 182 211.17 182 Z" style="stroke:none;fill:#1C1C1C;stroke-miterlimit:10;"/></g></svg>